<?xml version="1.0" standalone="no"?>
<!DOCTYPE svg PUBLIC "-//W3C//DTD SVG 20010904//EN"
 "http://www.w3.org/TR/2001/REC-SVG-20010904/DTD/svg10.dtd">
<svg version="1.0" xmlns="http://www.w3.org/2000/svg"
 width="512.000000pt" height="512.000000pt" viewBox="0 0 512.000000 512.000000"
 preserveAspectRatio="xMidYMid meet">
<metadata>
Created by potrace 1.11, written by Peter Selinger 2001-2013
</metadata>
<g transform="translate(0.000000,512.000000) scale(0.100000,-0.100000)"
fill="#000000" stroke="none">
<path d="M1212 4603 c-28 -32 -69 -80 -92 -108 -23 -27 -52 -61 -64 -75 -11
-14 -43 -52 -71 -85 -27 -33 -52 -62 -55 -65 -3 -3 -140 -164 -305 -359 -165
-195 -373 -440 -462 -545 l-162 -191 -1 -67 c0 -58 3 -71 26 -95 14 -15 96
-102 182 -193 256 -268 307 -323 352 -370 47 -50 275 -290 360 -379 30 -32
111 -117 180 -190 69 -73 150 -158 180 -190 233 -245 364 -383 400 -421 44
-47 292 -308 370 -390 276 -289 356 -374 358 -381 2 -5 69 -9 148 -9 l145 0
25 28 c49 52 329 347 421 442 50 52 100 105 111 117 10 13 88 95 173 184 85
88 172 180 194 203 80 85 341 360 375 396 33 34 298 314 365 385 34 36 329
347 451 475 45 47 96 101 114 120 18 19 67 72 111 116 l79 81 0 70 c0 68 -1
70 -48 124 -26 29 -112 131 -191 224 -145 173 -171 203 -225 265 -17 20 -51
60 -76 90 -25 29 -74 88 -110 130 -36 43 -126 149 -200 236 -74 87 -197 232
-273 322 l-139 162 -1298 0 -1298 0 -50 -57z"/>
</g>
</svg>
